<svg width="150" height="150" viewBox="0 0 150 150" fill="#FBC02D" xmlns="http://www.w3.org/2000/svg"><path d="M137.5 35.7505L108.75 11.6255L100.688 21.188L129.437 45.313L137.5 35.7505ZM49.25 21.188L41.25 11.6255L12.5 35.688L20.5625 45.2505L49.25 21.188ZM78.125 50.0005H68.75V87.5005L98.4375 105.313L103.125 97.6255L78.125 82.813V50.0005ZM75 25.0005C43.9375 25.0005 18.75 50.188 18.75 81.2505C18.75 112.313 43.875 137.5 75 137.5C106.062 137.5 131.25 112.313 131.25 81.2505C131.25 50.188 106.062 25.0005 75 25.0005ZM75 125C50.8125 125 31.25 105.438 31.25 81.2505C31.25 57.063 50.8125 37.5005 75 37.5005C99.1875 37.5005 118.75 57.063 118.75 81.2505C118.75 105.438 99.1875 125 75 125Z" fill="#FBC02D"></path></svg>